<?xml version="1.0" encoding="utf-8"?>
<!-- Generator: Adobe Illustrator 15.1.0, SVG Export Plug-In . SVG Version: 6.00 Build 0)  -->
<!DOCTYPE svg PUBLIC "-//W3C//DTD SVG 1.1//EN" "http://www.w3.org/Graphics/SVG/1.1/DTD/svg11.dtd">
<svg version="1.1" id="Layer_1" xmlns="http://www.w3.org/2000/svg" xmlns:xlink="http://www.w3.org/1999/xlink" x="0px" y="0px"
	 width="114.083px" height="18.819px" viewBox="0 0 114.083 18.819" enable-background="new 0 0 114.083 18.819"
	 xml:space="preserve">
<g>
	<path fill="#FFFFFF" d="M2.213,15.405c-3.327-3.911-2.852-9.809,1.081-13.137C6.6-0.54,11.332-0.626,14.724,1.793l0.065,0.043
		l0.043,0.043c0.173,0.194,0.151,0.475-0.021,0.626l-2.031,1.707c-0.13,0.108-0.303,0.129-0.476,0.043
		c-2.096-1.231-4.861-1.059-6.828,0.605c-2.484,2.118-2.787,5.855-0.67,8.362c1.966,2.312,5.358,2.744,7.822,1.081
		c0,0,0.021,0,0.021-0.022c0.173-0.108,0.432-0.065,0.562,0.108l1.62,1.923c0.173,0.173,0.151,0.454-0.021,0.605
		c-0.021,0-0.021,0-0.021,0.021h-0.021v0.021c-0.519,0.367-1.059,0.67-1.621,0.929C9.452,19.532,4.958,18.646,2.213,15.405z"/>
	<path fill="#FFFFFF" d="M25.76,18.711c-5.121,0-9.291-4.17-9.291-9.291s4.17-9.291,9.291-9.291c5.121,0,9.291,4.17,9.291,9.291
		S30.881,18.711,25.76,18.711z M25.76,3.5c-3.263,0-5.92,2.658-5.92,5.92s2.658,5.898,5.92,5.898c3.262,0,5.898-2.636,5.898-5.898
		S29.022,3.5,25.76,3.5z"/>
	<path fill="#FFFFFF" d="M38.393,0.151l7.065,7.065l7.065-7.065v18.128c0,0.237-0.173,0.432-0.411,0.432h-2.484
		c-0.238,0-0.433-0.194-0.433-0.432V8.167l-3.738,3.738L41.72,8.167v10.112c0,0.237-0.173,0.432-0.411,0.432h-2.506
		c-0.216,0-0.41-0.194-0.41-0.432V0.151z"/>
	<path fill="#F37021" d="M67.189,18.279c0,0.237-0.238,0.41-0.54,0.41h-9.161c-0.238,0-0.433-0.173-0.433-0.41V0.648
		c0-0.281,0.195-0.519,0.433-0.519h2.528c0.238,0,0.411,0.237,0.411,0.519v14.67h6.223c0.302,0,0.54,0.195,0.54,0.432V18.279z"/>
	<path fill="#F37021" d="M77.404,3.479v11.819h2.831c0.303,0,0.54,0.194,0.54,0.432v2.528c0,0.238-0.237,0.432-0.54,0.432h-9.161
		c-0.238,0-0.432-0.194-0.432-0.432v-2.528c0-0.238,0.194-0.432,0.432-0.432h2.938V3.479h-2.938c-0.238,0-0.432-0.173-0.432-0.41
		V0.54c0-0.237,0.194-0.432,0.432-0.432h9.161c0.303,0,0.54,0.195,0.54,0.432v2.528c0,0.237-0.237,0.41-0.54,0.41H77.404z"/>
	<path fill="#F37021" d="M97.322,18.819L88.031,8.686v9.572c0,0.238-0.173,0.432-0.411,0.432h-2.528
		c-0.238,0-0.433-0.194-0.433-0.432V0l9.291,10.133V0.562c0-0.237,0.194-0.432,0.41-0.432h2.55c0.216,0,0.411,0.194,0.411,0.432
		V18.819z"/>
	<path fill="#F37021" d="M114.083,18.257c0,0.238-0.173,0.432-0.41,0.432h-3.09c-0.13,0-0.238-0.043-0.324-0.151l-0.021-0.043
		l-5.229-7.346v7.108c0,0.238-0.172,0.432-0.41,0.432h-2.527c-0.238,0-0.433-0.194-0.433-0.432V7.713h1.987l-1.944-6.936
		l-0.043-0.173V0.562c0-0.237,0.194-0.432,0.433-0.432h2.636c0.173,0,0.346,0.129,0.389,0.302l1.707,6.093l3.414-6.158
		c0.086-0.151,0.216-0.237,0.389-0.237h2.874c0.237,0,0.432,0.194,0.432,0.432c0,0.065-0.021,0.13-0.043,0.195l-0.043,0.065
		l-5.272,9.485l5.423,7.649l0.065,0.064C114.061,18.084,114.083,18.171,114.083,18.257z"/>
</g>
</svg>
